<?xml version="1.0" encoding="UTF-8" standalone="no"?>
<!-- Created with Inkscape (http://www.inkscape.org/) -->

<svg
   width="210mm"
   height="297mm"
   viewBox="0 0 210 297"
   version="1.1"
   id="svg1"
   inkscape:version="1.4 (86a8ad7, 2024-10-11)"
   sodipodi:docname="Report Cover.svg"
   inkscape:export-filename="Report Cover Plain.svg"
   inkscape:export-xdpi="96"
   inkscape:export-ydpi="96"
   xmlns:inkscape="http://www.inkscape.org/namespaces/inkscape"
   xmlns:sodipodi="http://sodipodi.sourceforge.net/DTD/sodipodi-0.dtd"
   xmlns:xlink="http://www.w3.org/1999/xlink"
   xmlns="http://www.w3.org/2000/svg"
   xmlns:svg="http://www.w3.org/2000/svg">
  <sodipodi:namedview
     id="namedview1"
     pagecolor="#ffffff"
     bordercolor="#eeeeee"
     borderopacity="1"
     inkscape:showpageshadow="0"
     inkscape:pageopacity="0"
     inkscape:pagecheckerboard="0"
     inkscape:deskcolor="#353535"
     inkscape:document-units="mm"
     inkscape:zoom="0.7483165"
     inkscape:cx="313.37008"
     inkscape:cy="578.63217"
     inkscape:window-width="1920"
     inkscape:window-height="1051"
     inkscape:window-x="-9"
     inkscape:window-y="-9"
     inkscape:window-maximized="1"
     inkscape:current-layer="layer1" />
  <defs
     id="defs1">
    <pattern
       inkscape:collect="always"
       xlink:href="#pattern48"
       preserveAspectRatio="xMidYMid"
       id="pattern49"
       patternTransform="matrix(0.27218267,-0.35966264,0.90620137,0.68578796,2760.9044,1993.8673)" />
    <pattern
       inkscape:collect="always"
       xlink:href="#shading25"
       preserveAspectRatio="xMidYMid"
       id="pattern48"
       patternTransform="matrix(0.27218267,-0.35966264,0.90620137,0.68578796,2760.5508,1993.5137)"
       x="-1"
       y="1" />
    <clipPath
       clipPathUnits="userSpaceOnUse"
       id="clipPath55">
      <path
         id="path55"
         style="stroke-width:0.1;stroke-linecap:square;paint-order:markers fill stroke;stop-color:#000000"
         d="m 1736.6147,-745.57287 h 1589.4765 v 72.46715 H 1736.6147 Z" />
    </clipPath>
    <pattern
       patternUnits="userSpaceOnUse"
       width="495.03794"
       height="21.076199"
       patternTransform="translate(212.539,1618.645) scale(0.5)"
       preserveAspectRatio="xMidYMid"
       id="shading25"
       style="fill:#000000"
       inkscape:label="Wave vertical lines shading 2"
       inkscape:collect="always"
       inkscape:isstock="true">
      <path
         style="fill-rule:nonzero;stroke:none;stroke-width:0.1;stroke-linecap:square;paint-order:markers fill stroke;stop-color:#000000"
         d="m 1805.253,-746.46472 c 1.0402,-0.0242 3.4108,4.37455 7.0577,8.18013 3.6876,3.84796 8.2993,6.92727 9.9087,6.245 1.531,-0.64902 3.0145,-1.36996 4.4515,-2.15084 5.8889,-3.20018 11.0505,-7.43632 15.6328,-12.00267 4.3906,-4.37518 8.4523,-9.25871 12.2865,-14.23213 3.6922,-4.78921 7.2651,-9.78331 10.7748,-14.62266 3.4058,-4.6961 6.7283,-9.21352 10.0799,-13.3336 3.2557,-4.00218 6.3873,-7.43989 9.4721,-10.20426 2.9933,-2.68228 5.6959,-4.5067 8.158,-5.63611 2.2943,-1.05247 4.4882,-1.55745 6.8189,-1.52963 2.4726,0.0315 4.7773,0.56548 7.1494,1.65702 2.4006,1.10461 5.029,2.85654 7.9759,5.49201 2.898,2.59171 5.871,5.82507 9.093,9.75261 3.1863,3.88411 6.2917,8.03984 9.7797,12.70057 3.2964,4.40464 6.9595,9.29382 10.7928,13.90719 3.7847,4.55502 8.0601,9.24326 12.8803,13.42238 4.7547,4.12228 10.3006,7.98005 16.7646,10.73225 6.452,2.74706 13.6016,4.29685 21.42,4.07349 7.5156,-0.21566 14.4174,-1.96117 20.7144,-4.81717 6.1374,-2.78363 11.476,-6.51214 16.2006,-10.60748 4.6296,-4.01305 8.7793,-8.48023 12.5486,-12.92455 3.7074,-4.37132 7.2367,-8.95064 10.5272,-13.20627 3.3192,-4.2927 6.3996,-8.26161 9.522,-11.90417 3.0769,-3.58935 5.9852,-6.611 8.8614,-9.04008 2.8248,-2.38578 5.4557,-4.05991 7.9864,-5.13602 2.4346,-1.03522 5.0005,-1.61631 7.933,-1.59518 3.0817,0.0247 5.8857,0.6131 8.6066,1.69966 2.7483,1.0975 5.5865,2.78047 8.5796,5.11224 2.9985,2.33606 6.025,5.21606 9.2431,8.63728 3.2167,3.41977 6.3603,7.0907 9.8296,11.13483 3.3388,3.89195 6.9881,8.13964 10.8098,12.15108 3.8127,4.00187 8.0461,8.03782 12.7656,11.60074 4.7053,3.55225 10.0353,6.74354 16.0995,8.97542 6.0736,2.23531 12.6744,3.42962 19.8243,3.2099 6.9419,-0.21445 13.3238,-1.6569 19.1948,-4.01012 5.7932,-2.32202 10.9188,-5.46111 15.5007,-8.94633 4.5346,-3.44928 8.6232,-7.30489 12.3531,-11.15543 3.6873,-3.80671 7.2085,-7.80438 10.478,-11.50262 3.3236,-3.75943 6.4052,-7.23018 9.5382,-10.42425 3.0993,-3.15966 6.0686,-5.85947 9.0513,-8.05878 2.9446,-2.17128 5.8117,-3.79138 8.7521,-4.8787 2.8764,-1.06364 5.9921,-1.67724 9.537,-1.64997 3.6739,0.0303 6.992,0.64706 10.1148,1.72267 3.1385,1.08099 6.212,2.67175 9.3417,4.76753 3.1347,2.09912 6.2423,4.64756 9.4813,7.60447 3.2525,2.9692 6.4282,6.15345 9.8838,9.60958 3.359,3.35956 6.9795,6.9727 10.7676,10.37975 3.7965,3.41461 7.9437,6.79117 12.5139,9.73902 4.5755,2.95131 9.6316,5.51048 15.2702,7.2663 5.6465,1.75829 11.7139,2.65945 18.264,2.44908 6.4036,-0.20674 12.2913,-1.37409 17.7421,-3.26594 5.4168,-1.88005 10.2799,-4.43255 14.702,-7.31946 8.6334,-5.63613 16.037,-12.88591 22.4929,-19.12205 6.7212,-6.49249 12.5433,-12.01959 18.9588,-16.04554 3.1167,-1.95583 6.2817,-3.48998 9.6171,-4.53345 3.3151,-1.03713 6.9363,-1.63324 11.0187,-1.59676 4.1886,0.0389 7.9706,0.64206 11.4829,1.6634 3.5211,1.02387 6.8647,2.49545 10.1535,4.34416 6.7293,3.78274 12.7884,8.8578 19.7448,14.67605 6.6797,5.58683 14.1794,11.84981 22.8466,16.49445 4.3993,2.35758 9.1632,4.34037 14.3945,5.67572 5.2392,1.3374 10.8382,1.99731 16.8856,1.79742 5.9509,-0.19758 11.4118,-1.12805 16.4807,-2.61218 5.062,-1.4821 9.6585,-3.49432 13.8987,-5.80208 8.3583,-4.54909 15.5942,-10.41733 22.0798,-15.60264 6.6984,-5.35543 12.7208,-10.08986 19.4484,-13.56586 3.3178,-1.71422 6.77,-3.09761 10.4797,-4.04609 3.7099,-0.94855 7.7574,-1.48277 12.2753,-1.43641 4.6033,0.0482 8.7691,0.59795 12.6207,1.51225 3.8618,0.91672 7.4642,2.21344 10.9267,3.79023 7.0358,3.20405 13.3135,7.46389 20.1791,12.08794 6.7504,4.54652 13.9988,9.39282 22.3166,12.94721 4.2052,1.79694 8.6919,3.27054 13.5684,4.2442 4.8908,0.97651 10.1111,1.43761 15.765,1.24836 11.2624,-0.37831 20.521,-2.93562 28.6567,-6.47523 8.072,-3.51191 15.1221,-8.04208 21.6404,-12.16339 6.6963,-4.23381 12.9442,-8.1134 20.0005,-10.97371 3.5223,-1.42776 7.2309,-2.5925 11.2464,-3.38941 4.0328,-0.80036 8.409,-1.23639 13.2487,-1.17981 9.8114,0.11585 17.8542,1.85503 25.0516,4.36762 7.3305,2.55909 13.8374,5.93583 20.6026,9.3952 6.8064,3.48043 13.7906,6.99804 21.7652,9.54609 8.1103,2.59142 17.0871,4.1297 27.8305,3.77392 10.7829,-0.35782 19.616,-2.22314 27.397,-4.75151 7.8298,-2.54421 14.7241,-5.81193 21.2574,-8.84427 6.7362,-3.1265 13.1864,-6.05206 20.5241,-8.20536 7.4291,-2.18015 15.6984,-3.54041 25.7353,-3.4038 10.2558,0.14005 18.6371,1.44063 26.0454,3.2451 7.5622,1.84195 14.2792,4.25488 20.9188,6.5816 6.8632,2.40506 13.6102,4.70565 21.2999,6.34646 7.8788,1.68112 16.5313,2.61777 26.873,2.29501 10.572,-0.33017 19.1698,-1.57317 26.6821,-3.17078 7.6977,-1.63702 14.5554,-3.71973 21.0333,-5.62279 6.8635,-2.01634 13.4186,-3.86892 20.9005,-5.21157 7.7662,-1.39367 16.2621,-2.18128 26.3973,-2.00285 10.5688,0.18612 19.571,1.0009 27.4886,2.03127 8.2949,1.07948 15.8964,2.4683 22.7063,3.70019 7.5417,1.36427 14.2298,2.55761 21.3722,3.41275 7.6698,0.91828 15.2607,1.36253 23.4948,1.17118 -8.2329,0.19132 -15.8265,-0.27549 -23.4867,-1.23711 -7.127,-0.89468 -13.8174,-2.14555 -21.3362,-3.5838 -6.7871,-1.2983 -14.3958,-2.77846 -22.6833,-3.95633 -7.9184,-1.1254 -16.9372,-2.05108 -27.5366,-2.35688 -10.1846,-0.29378 -18.7526,0.37309 -26.617,1.64579 -7.5758,1.22599 -14.2201,2.96175 -21.1376,4.83776 -6.5443,1.7748 -13.3629,3.68433 -21.0048,5.14881 -7.4367,1.42516 -15.9178,2.48706 -26.3321,2.64466 -10.1332,0.15313 -18.5407,-0.9331 -26.1414,-2.73417 -7.4344,-1.76168 -13.9556,-4.16646 -20.7382,-6.74008 -6.5218,-2.47465 -13.3737,-5.14188 -21.1194,-7.22722 -7.6372,-2.05614 -16.3276,-3.6051 -26.9688,-3.95086 -10.5199,-0.34138 -19.3093,0.88492 -27.279,3.00593 -7.8222,2.08173 -14.6821,4.97623 -21.514,7.91838 -6.7081,2.88878 -13.3235,5.79307 -20.7808,8.00175 -7.3234,2.16904 -15.5587,3.69804 -25.6171,3.82499 -9.8657,0.12375 -17.9469,-1.48692 -25.1838,-4.01635 -7.2078,-2.51921 -13.5637,-5.93582 -20.273,-9.61486 -6.5298,-3.58059 -13.4941,-7.469 -21.4355,-10.48802 -7.9484,-3.02169 -16.9719,-5.2211 -27.9626,-5.58943 -5.4993,-0.1838 -10.5688,0.19085 -15.3165,1.00812 -4.7274,0.81379 -9.0913,2.0587 -13.2027,3.59348 -8.1421,3.03939 -15.2576,7.20841 -22.0376,11.22444 -6.8169,4.03789 -13.2099,7.86617 -20.3976,10.75701 -7.0422,2.83228 -14.8483,4.75672 -24.3578,4.86239 -4.6935,0.0514 -8.9184,-0.43774 -12.8001,-1.31922 -3.8729,-0.8795 -7.4591,-2.16207 -10.8806,-3.73959 -6.8934,-3.1783 -13.028,-7.49576 -19.7215,-12.28814 -6.5027,-4.6558 -13.6455,-9.84707 -21.859,-13.86966 -4.1472,-2.03108 -8.6183,-3.79464 -13.5224,-5.09639 -4.901,-1.30092 -10.1811,-2.12636 -15.9446,-2.31929 -5.8367,-0.19458 -11.234,0.36122 -16.2897,1.51082 -5.0454,1.14727 -9.6669,2.86675 -13.9695,4.93859 -8.4949,4.09058 -15.8728,9.63636 -22.5897,14.70674 -6.912,5.21764 -13.0774,9.89183 -19.9584,13.3922 -3.3754,1.71707 -6.8517,3.10868 -10.5503,4.08535 -3.6901,0.97447 -7.6753,1.55546 -12.0844,1.59901 -4.3139,0.0414 -8.1595,-0.52884 -11.6795,-1.52946 -3.5292,-1.00322 -6.8396,-2.47028 -10.0546,-4.30985 -6.5663,-3.7571 -12.4832,-8.89278 -19.1915,-14.81524 -6.4693,-5.71144 -13.7933,-12.2677 -22.2933,-17.35597 -4.333,-2.59382 -9.0615,-4.86936 -14.2957,-6.54431 -5.2532,-1.68101 -10.9174,-2.7252 -17.0821,-2.92743 -6.2858,-0.20518 -12.109,0.56945 -17.5467,2.10978 -5.4303,1.53828 -10.3404,3.80131 -14.8319,6.45301 -8.8295,5.21272 -16.4405,12.20616 -23.0792,18.30141 -6.999,6.426 -12.9605,11.8926 -19.5454,15.94722 -3.2061,1.97409 -6.4061,3.50888 -9.7469,4.56976 -3.3219,1.05488 -6.8806,1.67013 -10.8233,1.70458 -3.8254,0.0317 -7.202,-0.57916 -10.301,-1.6371 -3.1329,-1.06953 -6.153,-2.65546 -9.179,-4.72114 -3.0565,-2.08651 -6.0722,-4.62957 -9.1911,-7.57594 -3.1489,-2.97464 -6.2412,-6.20303 -9.5654,-9.68937 -3.2664,-3.42563 -6.7777,-7.12294 -10.4493,-10.64018 -3.7085,-3.55253 -7.7548,-7.09325 -12.2236,-10.25212 -4.5059,-3.18505 -9.5028,-6.0264 -15.1076,-8.12276 -5.6582,-2.11629 -11.7864,-3.4165 -18.4502,-3.62744 -6.8393,-0.21536 -13.1675,0.82531 -19.0283,2.81585 -5.8515,1.98743 -11.0491,4.8568 -15.6969,8.10956 -4.6501,3.25435 -8.8452,6.96068 -12.6539,10.67137 -3.8076,3.70975 -7.4445,7.64004 -10.7947,11.26687 -3.4626,3.7487 -6.6218,7.17598 -9.855,10.3693 -3.2261,3.18624 -6.2897,5.89928 -9.352,8.11634 -3.0629,2.21748 -6.0067,3.85164 -8.9486,4.94482 -2.9204,1.08524 -5.9851,1.69279 -9.3701,1.71963 -3.2453,0.0235 -6.0885,-0.58022 -8.741,-1.63558 -2.7235,-1.08361 -5.4717,-2.73602 -8.3495,-5.01373 -2.9215,-2.31224 -5.8543,-5.17046 -8.9396,-8.54449 -3.124,-3.41627 -6.201,-7.1331 -9.5232,-11.16224 -3.2767,-3.97399 -6.8041,-8.26688 -10.5034,-12.35915 -3.7494,-4.14756 -7.8727,-8.31359 -12.4619,-12.04955 -4.6496,-3.78508 -9.8951,-7.22632 -15.8695,-9.77971 -6.0857,-2.60092 -12.7284,-4.19334 -19.9586,-4.40985 -7.4783,-0.22285 -14.3566,1.1405 -20.6322,3.62995 -6.2726,2.48823 -11.6981,5.99226 -16.4627,9.85403 -4.7765,3.87151 -9.0375,8.23511 -12.8438,12.52019 -3.8304,4.31226 -7.4882,8.87832 -10.811,13.03126 -3.4768,4.34559 -6.604,8.26031 -9.8058,11.90992 -3.216,3.66558 -6.2124,6.71783 -9.1565,9.17735 -2.9675,2.47902 -5.6832,4.18663 -8.2487,5.28547 -2.5332,1.08496 -5.0783,1.64671 -7.8507,1.67186 -2.6179,0.0214 -4.9128,-0.52472 -7.1451,-1.53131 -2.3604,-1.06434 -4.8951,-2.76005 -7.6846,-5.25871 -2.8527,-2.55534 -5.7515,-5.75015 -8.8246,-9.55288 -3.1323,-3.87594 -6.2284,-8.10789 -9.5403,-12.6505 -3.3176,-4.55029 -6.8423,-9.39908 -10.5533,-14.03769 -3.796,-4.74492 -7.9623,-9.49497 -12.6121,-13.76434 -4.7861,-4.3945 -10.2041,-8.39968 -16.4732,-11.40177 -6.5042,-3.11465 -13.6483,-5.00378 -21.4158,-5.21173 -8.1572,-0.2177 -15.574,1.54118 -22.1695,4.46464 -6.6773,2.95972 -12.4222,7.0687 -17.3191,11.37963 -5.042,4.43874 -9.5397,9.40939 -13.5027,14.21556 -4.0818,4.95023 -7.952,10.16777 -11.4019,14.87294 -3.7492,5.11334 -6.9172,9.5003 -10.2234,13.7532 -3.3736,4.33962 -6.3815,7.86576 -9.2372,10.69568 -2.986,2.959 -5.4331,4.7791 -7.4255,5.85967 -0.4711,0.2555 -0.9072,0.46433 -1.3103,0.63522 -0.3951,0.16748 0.5373,4.68782 0.2198,9.38558 -0.3174,4.69775 -2.0538,9.40888 -3.094,9.43305 z m 0,36.23359 c 1.0402,-0.0242 3.4108,4.37455 7.0577,8.18013 3.6876,3.84796 8.2993,6.92727 9.9087,6.245 1.531,-0.64902 3.0145,-1.36996 4.4515,-2.15084 5.8889,-3.20018 11.0505,-7.43632 15.6328,-12.00267 4.3906,-4.37518 8.4523,-9.25871 12.2865,-14.23213 3.6922,-4.78921 7.2651,-9.78331 10.7748,-14.62266 3.4058,-4.6961 6.7283,-9.21352 10.0799,-13.3336 3.2557,-4.00218 6.3873,-7.43989 9.4721,-10.20426 2.9933,-2.68228 5.6959,-4.5067 8.158,-5.63611 2.2943,-1.05247 4.4882,-1.55745 6.8189,-1.52963 2.4726,0.0315 4.7773,0.56548 7.1494,1.65702 2.4006,1.10461 5.029,2.85654 7.9759,5.49201 2.898,2.59171 5.871,5.82507 9.093,9.75261 3.1863,3.88411 6.2917,8.03984 9.7797,12.70057 3.2964,4.40464 6.9595,9.29382 10.7928,13.90719 3.7847,4.55502 8.0601,9.24326 12.8803,13.42238 4.7547,4.12228 10.3006,7.98005 16.7646,10.73225 6.452,2.74706 13.6016,4.29685 21.42,4.07349 7.5156,-0.21566 14.4174,-1.96117 20.7144,-4.81717 6.1374,-2.78363 11.476,-6.51214 16.2006,-10.60748 4.6296,-4.01305 8.7793,-8.48023 12.5486,-12.92455 3.7074,-4.37132 7.2367,-8.95064 10.5272,-13.20627 3.3192,-4.2927 6.3996,-8.26161 9.522,-11.90417 3.0769,-3.58935 5.9852,-6.611 8.8614,-9.04008 2.8248,-2.38578 5.4557,-4.05991 7.9864,-5.13602 2.4346,-1.03522 5.0005,-1.61631 7.933,-1.59518 3.0817,0.0247 5.8857,0.6131 8.6066,1.69966 2.7483,1.0975 5.5865,2.78047 8.5796,5.11224 2.9985,2.33606 6.025,5.21606 9.2431,8.63728 3.2167,3.41977 6.3603,7.0907 9.8296,11.13483 3.3388,3.89195 6.9881,8.13964 10.8098,12.15108 3.8127,4.00187 8.0461,8.03782 12.7656,11.60073 4.7053,3.55226 10.0353,6.74355 16.0995,8.97543 6.0736,2.23531 12.6744,3.42962 19.8243,3.2099 6.9419,-0.21445 13.3238,-1.6569 19.1948,-4.01012 5.7932,-2.32202 10.9188,-5.46111 15.5007,-8.94633 4.5346,-3.44928 8.6232,-7.30489 12.3531,-11.15543 3.6873,-3.80671 7.2085,-7.80438 10.478,-11.50262 3.3236,-3.75943 6.4052,-7.23018 9.5382,-10.42425 3.0993,-3.15966 6.0686,-5.85947 9.0513,-8.05878 2.9446,-2.17128 5.8117,-3.79138 8.7521,-4.8787 2.8764,-1.06364 5.9921,-1.67724 9.537,-1.64997 3.6739,0.0303 6.992,0.64706 10.1148,1.72267 3.1385,1.08099 6.212,2.67175 9.3417,4.76753 3.1347,2.09912 6.2423,4.64756 9.4813,7.60447 3.2525,2.9692 6.4282,6.15345 9.8838,9.60958 3.359,3.35956 6.9795,6.9727 10.7676,10.37975 3.7965,3.41461 7.9437,6.79117 12.5139,9.73902 4.5755,2.95131 9.6316,5.51048 15.2702,7.2663 5.6465,1.75829 11.7139,2.65945 18.264,2.44908 6.4036,-0.20674 12.2913,-1.37409 17.7421,-3.26594 5.4168,-1.88006 10.2799,-4.43255 14.702,-7.31946 8.6334,-5.63613 16.037,-12.88591 22.4929,-19.12205 6.7212,-6.49249 12.5433,-12.01959 18.9588,-16.04554 3.1167,-1.95583 6.2817,-3.48998 9.6171,-4.53345 3.3151,-1.03713 6.9363,-1.63324 11.0187,-1.59676 4.1886,0.0389 7.9706,0.64206 11.4829,1.6634 3.5211,1.02387 6.8647,2.49545 10.1535,4.34416 6.7293,3.78274 12.7884,8.8578 19.7448,14.67605 6.6797,5.58683 14.1794,11.84981 22.8466,16.49445 4.3993,2.35758 9.1632,4.34037 14.3945,5.67572 5.2392,1.3374 10.8382,1.99731 16.8856,1.79742 5.9509,-0.19759 11.4118,-1.12806 16.4807,-2.61218 5.062,-1.4821 9.6585,-3.49432 13.8987,-5.80208 8.3583,-4.54909 15.5942,-10.41733 22.0798,-15.60264 6.6984,-5.35543 12.7208,-10.08986 19.4484,-13.56586 3.3178,-1.71422 6.77,-3.09761 10.4797,-4.0461 3.7099,-0.94854 7.7574,-1.48276 12.2753,-1.4364 4.6033,0.0482 8.7691,0.59795 12.6207,1.51225 3.8618,0.91672 7.4642,2.21344 10.9267,3.79023 7.0358,3.20405 13.3135,7.46389 20.1791,12.08794 6.7504,4.54652 13.9988,9.39282 22.3166,12.94721 4.2052,1.79694 8.6919,3.27054 13.5684,4.2442 4.8908,0.97651 10.1111,1.43761 15.765,1.24836 11.2624,-0.37831 20.521,-2.93562 28.6567,-6.47523 8.072,-3.51191 15.1221,-8.04208 21.6404,-12.16339 6.6963,-4.23381 12.9442,-8.1134 20.0005,-10.97371 3.5223,-1.42776 7.2309,-2.5925 11.2464,-3.38941 4.0328,-0.80036 8.409,-1.23639 13.2487,-1.17981 9.8114,0.11585 17.8542,1.85503 25.0516,4.36762 7.3305,2.55909 13.8374,5.93583 20.6026,9.3952 6.8064,3.48043 13.7906,6.99803 21.7652,9.54609 8.1103,2.59142 17.0871,4.1297 27.8305,3.77392 10.7829,-0.35782 19.616,-2.22314 27.397,-4.75151 7.8298,-2.54421 14.7241,-5.81193 21.2574,-8.84427 6.7362,-3.1265 13.1864,-6.05206 20.5241,-8.20536 7.4291,-2.18015 15.6984,-3.54041 25.7353,-3.4038 10.2558,0.14005 18.6371,1.44063 26.0454,3.2451 7.5622,1.84195 14.2792,4.25488 20.9188,6.5816 6.8632,2.40506 13.6102,4.70565 21.2999,6.34646 7.8788,1.68112 16.5313,2.61777 26.873,2.29501 10.572,-0.33017 19.1698,-1.57317 26.6821,-3.17078 7.6977,-1.63702 14.5554,-3.71973 21.0333,-5.62279 6.8635,-2.01634 13.4186,-3.86892 20.9005,-5.21157 7.7662,-1.39367 16.2621,-2.18128 26.3973,-2.00285 10.5688,0.18612 19.571,1.0009 27.4886,2.03127 8.2949,1.07948 15.8964,2.4683 22.7063,3.70019 7.5417,1.36427 14.2298,2.55761 21.3722,3.41275 7.6698,0.91828 15.2607,1.36253 23.4948,1.17118 -8.2329,0.19132 -15.8265,-0.27549 -23.4867,-1.23711 -7.127,-0.89468 -13.8174,-2.14555 -21.3362,-3.5838 -6.7871,-1.2983 -14.3958,-2.77846 -22.6833,-3.95633 -7.9184,-1.1254 -16.9372,-2.05108 -27.5366,-2.35688 -10.1846,-0.29378 -18.7526,0.37309 -26.617,1.64579 -7.5758,1.22599 -14.2201,2.96175 -21.1376,4.83776 -6.5443,1.7748 -13.3629,3.68433 -21.0048,5.14881 -7.4367,1.42516 -15.9178,2.48706 -26.3321,2.64466 -10.1332,0.15313 -18.5407,-0.9331 -26.1414,-2.73417 -7.4344,-1.76168 -13.9556,-4.16646 -20.7382,-6.74008 -6.5218,-2.47465 -13.3737,-5.14188 -21.1194,-7.22722 -7.6372,-2.05614 -16.3276,-3.6051 -26.9688,-3.95086 -10.5199,-0.34138 -19.3093,0.88492 -27.279,3.00593 -7.8222,2.08173 -14.6821,4.97623 -21.514,7.91838 -6.7081,2.88878 -13.3235,5.79307 -20.7808,8.00175 -7.3234,2.16903 -15.5587,3.69804 -25.6171,3.82499 -9.8657,0.12375 -17.9469,-1.48692 -25.1838,-4.01635 -7.2078,-2.51921 -13.5637,-5.93582 -20.273,-9.61486 -6.5298,-3.58059 -13.4941,-7.469 -21.4355,-10.48802 -7.9484,-3.02169 -16.9719,-5.2211 -27.9626,-5.58943 -5.4993,-0.1838 -10.5688,0.19085 -15.3165,1.00812 -4.7274,0.81379 -9.0913,2.0587 -13.2027,3.59348 -8.1421,3.03939 -15.2576,7.20841 -22.0376,11.22444 -6.8169,4.03789 -13.2099,7.86617 -20.3976,10.75701 -7.0422,2.83228 -14.8483,4.75672 -24.3578,4.86239 -4.6935,0.0514 -8.9184,-0.43774 -12.8001,-1.31922 -3.8729,-0.8795 -7.4591,-2.16207 -10.8806,-3.73959 -6.8934,-3.1783 -13.028,-7.49576 -19.7215,-12.28814 -6.5027,-4.6558 -13.6455,-9.84707 -21.859,-13.86966 -4.1472,-2.03108 -8.6183,-3.79464 -13.5224,-5.09639 -4.901,-1.30092 -10.1811,-2.12636 -15.9446,-2.31929 -5.8367,-0.19458 -11.234,0.36122 -16.2897,1.51082 -5.0454,1.14727 -9.6669,2.86675 -13.9695,4.93859 -8.4949,4.09058 -15.8728,9.63636 -22.5897,14.70674 -6.912,5.21764 -13.0774,9.89183 -19.9584,13.3922 -3.3754,1.71707 -6.8517,3.10868 -10.5503,4.08535 -3.6901,0.97447 -7.6753,1.55546 -12.0844,1.59901 -4.3139,0.0414 -8.1595,-0.52884 -11.6795,-1.52946 -3.5292,-1.00322 -6.8396,-2.47028 -10.0546,-4.30985 -6.5663,-3.7571 -12.4832,-8.89278 -19.1915,-14.81524 -6.4693,-5.71144 -13.7933,-12.2677 -22.2933,-17.35597 -4.333,-2.59382 -9.0615,-4.86936 -14.2957,-6.54431 -5.2532,-1.68101 -10.9174,-2.7252 -17.0821,-2.92743 -6.2858,-0.20518 -12.109,0.56945 -17.5467,2.10978 -5.4303,1.53828 -10.3404,3.80131 -14.8319,6.45301 -8.8295,5.21272 -16.4405,12.20616 -23.0792,18.30141 -6.999,6.426 -12.9605,11.8926 -19.5454,15.94722 -3.2061,1.97409 -6.4061,3.50888 -9.7469,4.56976 -3.3219,1.05488 -6.8806,1.67013 -10.8233,1.70458 -3.8254,0.0317 -7.202,-0.57916 -10.301,-1.6371 -3.1329,-1.06953 -6.153,-2.65546 -9.179,-4.72114 -3.0565,-2.08651 -6.0722,-4.62957 -9.1911,-7.57594 -3.1489,-2.97464 -6.2412,-6.20303 -9.5654,-9.68937 -3.2664,-3.42563 -6.7777,-7.12294 -10.4493,-10.64018 -3.7085,-3.55253 -7.7548,-7.09325 -12.2236,-10.25212 -4.5059,-3.18505 -9.5028,-6.0264 -15.1076,-8.12276 -5.6582,-2.11629 -11.7864,-3.4165 -18.4502,-3.62745 -6.8393,-0.21535 -13.1675,0.82532 -19.0283,2.81586 -5.8515,1.98743 -11.0491,4.8568 -15.6969,8.10956 -4.6501,3.25435 -8.8452,6.96068 -12.6539,10.67137 -3.8076,3.70975 -7.4445,7.64004 -10.7947,11.26687 -3.4626,3.7487 -6.6218,7.17598 -9.855,10.3693 -3.2261,3.18624 -6.2897,5.89928 -9.352,8.11634 -3.0629,2.21748 -6.0067,3.85164 -8.9486,4.94482 -2.9204,1.08524 -5.9851,1.69279 -9.3701,1.71963 -3.2453,0.0235 -6.0885,-0.58022 -8.741,-1.63558 -2.7235,-1.08361 -5.4717,-2.73602 -8.3495,-5.01373 -2.9215,-2.31224 -5.8543,-5.17046 -8.9396,-8.54449 -3.124,-3.41627 -6.201,-7.1331 -9.5232,-11.16224 -3.2767,-3.97399 -6.8041,-8.26688 -10.5034,-12.35915 -3.7494,-4.14756 -7.8727,-8.31359 -12.4619,-12.04955 -4.6496,-3.78508 -9.8951,-7.22632 -15.8695,-9.77971 -6.0857,-2.60092 -12.7284,-4.19334 -19.9586,-4.40985 -7.4783,-0.22285 -14.3566,1.1405 -20.6322,3.62995 -6.2726,2.48823 -11.6981,5.99226 -16.4627,9.85403 -4.7765,3.87151 -9.0375,8.23511 -12.8438,12.52019 -3.8304,4.31226 -7.4882,8.87832 -10.811,13.03125 -3.4768,4.3456 -6.604,8.26032 -9.8058,11.90993 -3.216,3.66558 -6.2124,6.71783 -9.1565,9.17735 -2.9675,2.47902 -5.6832,4.18663 -8.2487,5.28547 -2.5332,1.08496 -5.0783,1.64671 -7.8507,1.67186 -2.6179,0.0214 -4.9128,-0.52472 -7.1451,-1.53131 -2.3604,-1.06434 -4.8951,-2.76005 -7.6846,-5.25871 -2.8527,-2.55534 -5.7515,-5.75015 -8.8246,-9.55288 -3.1323,-3.87594 -6.2284,-8.10789 -9.5403,-12.6505 -3.3176,-4.55029 -6.8423,-9.39908 -10.5533,-14.03769 -3.796,-4.74492 -7.9623,-9.49497 -12.6121,-13.76434 -4.7861,-4.3945 -10.2041,-8.39968 -16.4732,-11.40177 -6.5042,-3.11465 -13.6483,-5.00378 -21.4158,-5.21173 -8.1572,-0.2177 -15.574,1.54118 -22.1695,4.46464 -6.6773,2.95972 -12.4222,7.0687 -17.3191,11.37963 -5.042,4.43874 -9.5397,9.40939 -13.5027,14.21556 -4.0818,4.95023 -7.952,10.16777 -11.4019,14.87294 -3.7492,5.11334 -6.9172,9.5003 -10.2234,13.7532 -3.3736,4.33962 -6.3815,7.86576 -9.2372,10.69568 -2.986,2.959 -5.4331,4.77909 -7.4255,5.85967 -0.4711,0.2555 -0.9072,0.46433 -1.3103,0.63522 -0.3951,0.16748 0.5373,4.68782 0.2198,9.38558 -0.3174,4.69775 -2.0538,9.40888 -3.094,9.43305 z m 0,36.23359 c 1.0402,-0.0242 3.4108,4.37455 7.0577,8.18013 3.6876,3.84796 8.2993,6.92727 9.9087,6.245 1.531,-0.64902 3.0145,-1.36996 4.4515,-2.15084 5.8889,-3.20018 11.0505,-7.43632 15.6328,-12.00267 4.3906,-4.37518 8.4523,-9.25871 12.2865,-14.23213 3.6922,-4.78921 7.2651,-9.78331 10.7748,-14.62266 3.4058,-4.6961 6.7283,-9.21352 10.0799,-13.3336 3.2557,-4.00218 6.3873,-7.43989 9.4721,-10.20426 2.9933,-2.68228 5.6959,-4.5067 8.158,-5.63611 2.2943,-1.05247 4.4882,-1.55745 6.8189,-1.52963 2.4726,0.0315 4.7773,0.56548 7.1494,1.65702 2.4006,1.10461 5.029,2.85654 7.9759,5.49201 2.898,2.59171 5.871,5.82507 9.093,9.75261 3.1863,3.88411 6.2917,8.03984 9.7797,12.70057 3.2964,4.40464 6.9595,9.29382 10.7928,13.90719 3.7847,4.55502 8.0601,9.24326 12.8803,13.42238 4.7547,4.12228 10.3006,7.98005 16.7646,10.73225 6.452,2.74706 13.6016,4.29685 21.42,4.07349 7.5156,-0.21566 14.4174,-1.96117 20.7144,-4.81717 6.1374,-2.78363 11.476,-6.51214 16.2006,-10.60748 4.6296,-4.01305 8.7793,-8.48023 12.5486,-12.92455 3.7074,-4.37133 7.2367,-8.95064 10.5272,-13.20628 3.3192,-4.29269 6.3996,-8.2616 9.522,-11.90416 3.0769,-3.58935 5.9852,-6.611 8.8614,-9.04008 2.8248,-2.38578 5.4557,-4.05991 7.9864,-5.13602 2.4346,-1.03522 5.0005,-1.61631 7.933,-1.59518 3.0817,0.0247 5.8857,0.61309 8.6066,1.69966 2.7483,1.0975 5.5865,2.78047 8.5796,5.11224 2.9985,2.33606 6.025,5.21606 9.2431,8.63728 3.2167,3.41977 6.3603,7.0907 9.8296,11.13483 3.3388,3.89195 6.9881,8.13964 10.8098,12.15108 3.8127,4.00187 8.0461,8.03782 12.7656,11.60073 4.7053,3.55226 10.0353,6.74355 16.0995,8.97543 6.0736,2.23531 12.6744,3.42962 19.8243,3.2099 6.9419,-0.21445 13.3238,-1.6569 19.1948,-4.01012 5.7932,-2.32202 10.9188,-5.46111 15.5007,-8.94633 4.5346,-3.44928 8.6232,-7.30489 12.3531,-11.15543 3.6873,-3.80671 7.2085,-7.80438 10.478,-11.50262 3.3236,-3.75943 6.4052,-7.23018 9.5382,-10.42425 3.0993,-3.15966 6.0686,-5.85947 9.0513,-8.05878 2.9446,-2.17128 5.8117,-3.79138 8.7521,-4.8787 2.8764,-1.06364 5.9921,-1.67724 9.537,-1.64997 3.6739,0.0303 6.992,0.64706 10.1148,1.72267 3.1385,1.08099 6.212,2.67175 9.3417,4.76753 3.1347,2.09912 6.2423,4.64756 9.4813,7.60447 3.2525,2.9692 6.4282,6.15345 9.8838,9.60958 3.359,3.35956 6.9795,6.9727 10.7676,10.37975 3.7965,3.41461 7.9437,6.79117 12.5139,9.73902 4.5755,2.95131 9.6316,5.51048 15.2702,7.2663 5.6465,1.75829 11.7139,2.65945 18.264,2.44908 6.4036,-0.20674 12.2913,-1.37409 17.7421,-3.26594 5.4168,-1.88006 10.2799,-4.43255 14.702,-7.31946 8.6334,-5.63613 16.037,-12.88591 22.4929,-19.12205 6.7212,-6.49249 12.5433,-12.01959 18.9588,-16.04554 3.1167,-1.95583 6.2817,-3.48998 9.6171,-4.53345 3.3151,-1.03713 6.9363,-1.63324 11.0187,-1.59676 4.1886,0.0389 7.9706,0.64206 11.4829,1.6634 3.5211,1.02387 6.8647,2.49545 10.1535,4.34416 6.7293,3.78274 12.7884,8.8578 19.7448,14.67605 6.6797,5.58683 14.1794,11.84981 22.8466,16.49445 4.3993,2.35758 9.1632,4.34037 14.3945,5.67572 5.2392,1.3374 10.8382,1.99731 16.8856,1.79742 5.9509,-0.19759 11.4118,-1.12806 16.4807,-2.61218 5.062,-1.4821 9.6585,-3.49432 13.8987,-5.80208 8.3583,-4.54909 15.5942,-10.41733 22.0798,-15.60264 6.6984,-5.35543 12.7208,-10.08986 19.4484,-13.56586 3.3178,-1.71422 6.77,-3.09761 10.4797,-4.0461 3.7099,-0.94854 7.7574,-1.48276 12.2753,-1.4364 4.6033,0.0482 8.7691,0.59795 12.6207,1.51225 3.8618,0.91672 7.4642,2.21344 10.9267,3.79023 7.0358,3.20405 13.3135,7.46389 20.1791,12.08794 6.7504,4.54651 13.9988,9.39282 22.3166,12.94721 4.2052,1.79694 8.6919,3.27054 13.5684,4.2442 4.8908,0.97651 10.1111,1.43761 15.765,1.24836 11.2624,-0.37831 20.521,-2.93562 28.6567,-6.47523 8.072,-3.51191 15.1221,-8.04208 21.6404,-12.16339 6.6963,-4.23381 12.9442,-8.1134 20.0005,-10.97371 3.5223,-1.42777 7.2309,-2.5925 11.2464,-3.38941 4.0328,-0.80036 8.409,-1.23639 13.2487,-1.17981 9.8114,0.11585 17.8542,1.85503 25.0516,4.36762 7.3305,2.55909 13.8374,5.93583 20.6026,9.3952 6.8064,3.48043 13.7906,6.99803 21.7652,9.54609 8.1103,2.59142 17.0871,4.1297 27.8305,3.77392 10.7829,-0.35782 19.616,-2.22314 27.397,-4.75151 7.8298,-2.54421 14.7241,-5.81193 21.2574,-8.84427 6.7362,-3.1265 13.1864,-6.05207 20.5241,-8.20536 7.4291,-2.18015 15.6984,-3.54041 25.7353,-3.4038 10.2558,0.14005 18.6371,1.44063 26.0454,3.2451 7.5622,1.84195 14.2792,4.25488 20.9188,6.5816 6.8632,2.40506 13.6102,4.70565 21.2999,6.34646 7.8788,1.68112 16.5313,2.61777 26.873,2.29501 10.572,-0.33017 19.1698,-1.57317 26.6821,-3.17078 7.6977,-1.63702 14.5554,-3.71973 21.0333,-5.62279 6.8635,-2.01634 13.4186,-3.86892 20.9005,-5.21157 7.7662,-1.39367 16.2621,-2.18128 26.3973,-2.00285 10.5688,0.18612 19.571,1.0009 27.4886,2.03127 8.2949,1.07948 15.8964,2.4683 22.7063,3.70019 7.5417,1.36427 14.2298,2.55761 21.3722,3.41275 7.6698,0.91828 15.2607,1.36253 23.4948,1.17118 -8.2329,0.19132 -15.8265,-0.27549 -23.4867,-1.23711 -7.127,-0.89468 -13.8174,-2.14555 -21.3362,-3.5838 -6.7871,-1.2983 -14.3958,-2.77846 -22.6833,-3.95633 -7.9184,-1.1254 -16.9372,-2.05108 -27.5366,-2.35688 -10.1846,-0.29378 -18.7526,0.37309 -26.617,1.64579 -7.5758,1.22599 -14.2201,2.96175 -21.1376,4.83776 -6.5443,1.7748 -13.3629,3.68433 -21.0048,5.14881 -7.4367,1.42516 -15.9178,2.48706 -26.3321,2.64466 -10.1332,0.15313 -18.5407,-0.9331 -26.1414,-2.73417 -7.4344,-1.76168 -13.9556,-4.16646 -20.7382,-6.74008 -6.5218,-2.47465 -13.3737,-5.14188 -21.1194,-7.22722 -7.6372,-2.05614 -16.3276,-3.6051 -26.9688,-3.95086 -10.5199,-0.34138 -19.3093,0.88492 -27.279,3.00593 -7.8222,2.08173 -14.6821,4.97623 -21.514,7.91838 -6.7081,2.88878 -13.3235,5.79307 -20.7808,8.00175 -7.3234,2.16903 -15.5587,3.69804 -25.6171,3.82499 -9.8657,0.12375 -17.9469,-1.48692 -25.1838,-4.01635 -7.2078,-2.51921 -13.5637,-5.93582 -20.273,-9.61486 -6.5298,-3.58059 -13.4941,-7.469 -21.4355,-10.48803 -7.9484,-3.02168 -16.9719,-5.22109 -27.9626,-5.58942 -5.4993,-0.1838 -10.5688,0.19085 -15.3165,1.00812 -4.7274,0.81379 -9.0913,2.0587 -13.2027,3.59348 -8.1421,3.03939 -15.2576,7.20841 -22.0376,11.22444 -6.8169,4.03789 -13.2099,7.86617 -20.3976,10.75701 -7.0422,2.83228 -14.8483,4.75672 -24.3578,4.86239 -4.6935,0.0514 -8.9184,-0.43774 -12.8001,-1.31922 -3.8729,-0.8795 -7.4591,-2.16207 -10.8806,-3.73959 -6.8934,-3.1783 -13.028,-7.49576 -19.7215,-12.28814 -6.5027,-4.6558 -13.6455,-9.84707 -21.859,-13.86966 -4.1472,-2.03108 -8.6183,-3.79464 -13.5224,-5.09639 -4.901,-1.30092 -10.1811,-2.12636 -15.9446,-2.31929 -5.8367,-0.19458 -11.234,0.36122 -16.2897,1.51082 -5.0454,1.14727 -9.6669,2.86675 -13.9695,4.93859 -8.4949,4.09058 -15.8728,9.63636 -22.5897,14.70673 -6.912,5.21765 -13.0774,9.89184 -19.9584,13.39221 -3.3754,1.71707 -6.8517,3.10868 -10.5503,4.08535 -3.6901,0.97447 -7.6753,1.55546 -12.0844,1.59901 -4.3139,0.0414 -8.1595,-0.52884 -11.6795,-1.52946 -3.5292,-1.00322 -6.8396,-2.47028 -10.0546,-4.30985 -6.5663,-3.7571 -12.4832,-8.89278 -19.1915,-14.81524 -6.4693,-5.71144 -13.7933,-12.2677 -22.2933,-17.35597 -4.333,-2.59382 -9.0615,-4.86936 -14.2957,-6.54431 -5.2532,-1.68101 -10.9174,-2.7252 -17.0821,-2.92743 -6.2858,-0.20518 -12.109,0.56945 -17.5467,2.10978 -5.4303,1.53828 -10.3404,3.80131 -14.8319,6.45301 -8.8295,5.21272 -16.4405,12.20616 -23.0792,18.30141 -6.999,6.426 -12.9605,11.8926 -19.5454,15.94722 -3.2061,1.97409 -6.4061,3.50888 -9.7469,4.56976 -3.3219,1.05488 -6.8806,1.67013 -10.8233,1.70458 -3.8254,0.0317 -7.202,-0.57916 -10.301,-1.6371 -3.1329,-1.06953 -6.153,-2.65546 -9.179,-4.72114 -3.0565,-2.08651 -6.0722,-4.62957 -9.1911,-7.57594 -3.1489,-2.97464 -6.2412,-6.20303 -9.5654,-9.68937 -3.2664,-3.42563 -6.7777,-7.12294 -10.4493,-10.64018 -3.7085,-3.55253 -7.7548,-7.09325 -12.2236,-10.25212 -4.5059,-3.18505 -9.5028,-6.0264 -15.1076,-8.12276 -5.6582,-2.11629 -11.7864,-3.4165 -18.4502,-3.62745 -6.8393,-0.21535 -13.1675,0.82532 -19.0283,2.81586 -5.8515,1.98743 -11.0491,4.8568 -15.6969,8.10956 -4.6501,3.25435 -8.8452,6.96067 -12.6539,10.67137 -3.8076,3.70975 -7.4445,7.64004 -10.7947,11.26687 -3.4626,3.7487 -6.6218,7.17598 -9.855,10.3693 -3.2261,3.18624 -6.2897,5.89928 -9.352,8.11634 -3.0629,2.21748 -6.0067,3.85164 -8.9486,4.94482 -2.9204,1.08524 -5.9851,1.69279 -9.3701,1.71963 -3.2453,0.0235 -6.0885,-0.58022 -8.741,-1.63558 -2.7235,-1.08361 -5.4717,-2.73603 -8.3495,-5.01373 -2.9215,-2.31224 -5.8543,-5.17046 -8.9396,-8.54449 -3.124,-3.41627 -6.201,-7.1331 -9.5232,-11.16224 -3.2767,-3.97399 -6.8041,-8.26688 -10.5034,-12.35915 -3.7494,-4.14756 -7.8727,-8.31359 -12.4619,-12.04955 -4.6496,-3.78508 -9.8951,-7.22632 -15.8695,-9.77971 -6.0857,-2.60092 -12.7284,-4.19334 -19.9586,-4.40985 -7.4783,-0.22285 -14.3566,1.1405 -20.6322,3.62995 -6.2726,2.48823 -11.6981,5.99226 -16.4627,9.85403 -4.7765,3.87151 -9.0375,8.23511 -12.8438,12.52019 -3.8304,4.31226 -7.4882,8.87832 -10.811,13.03125 -3.4768,4.3456 -6.604,8.26032 -9.8058,11.90993 -3.216,3.66558 -6.2124,6.71783 -9.1565,9.17735 -2.9675,2.47902 -5.6832,4.18663 -8.2487,5.28547 -2.5332,1.08496 -5.0783,1.64671 -7.8507,1.67186 -2.6179,0.0214 -4.9128,-0.52472 -7.1451,-1.53131 -2.3604,-1.06434 -4.8951,-2.76005 -7.6846,-5.25871 -2.8527,-2.55534 -5.7515,-5.75015 -8.8246,-9.55288 -3.1323,-3.87594 -6.2284,-8.10789 -9.5403,-12.6505 -3.3176,-4.55029 -6.8423,-9.39908 -10.5533,-14.03769 -3.796,-4.74492 -7.9623,-9.49497 -12.6121,-13.76434 -4.7861,-4.3945 -10.2041,-8.39968 -16.4732,-11.40177 -6.5042,-3.11465 -13.6483,-5.00378 -21.4158,-5.21173 -8.1572,-0.2177 -15.574,1.54118 -22.1695,4.46464 -6.6773,2.95972 -12.4222,7.0687 -17.3191,11.37963 -5.042,4.43874 -9.5397,9.40939 -13.5027,14.21556 -4.0818,4.95023 -7.952,10.16777 -11.4019,14.87293 -3.7492,5.11335 -6.9172,9.50031 -10.2234,13.75321 -3.3736,4.33962 -6.3815,7.86576 -9.2372,10.69568 -2.986,2.959 -5.4331,4.77909 -7.4255,5.85967 -0.4711,0.2555 -0.9072,0.46433 -1.3103,0.63522 -0.3951,0.16748 0.5373,4.68782 0.2198,9.38558 -0.3174,4.69775 -2.0538,9.40888 -3.094,9.43305 z m 0,36.23359 c 1.0402,-0.0242 3.4108,4.37455 7.0577,8.18013 3.6876,3.84796 8.2993,6.92727 9.9087,6.245 1.531,-0.64902 3.0145,-1.36996 4.4515,-2.15084 5.8889,-3.20018 11.0505,-7.43632 15.6328,-12.00267 4.3906,-4.37518 8.4523,-9.25871 12.2865,-14.23213 3.6922,-4.78921 7.2651,-9.78331 10.7748,-14.62266 3.4058,-4.6961 6.7283,-9.21352 10.0799,-13.3336 3.2557,-4.00218 6.3873,-7.43989 9.4721,-10.20426 2.9933,-2.68228 5.6959,-4.50671 8.158,-5.63611 2.2943,-1.05247 4.4882,-1.55745 6.8189,-1.52963 2.4726,0.0315 4.7773,0.56548 7.1494,1.65702 2.4006,1.10461 5.029,2.85654 7.9759,5.49201 2.898,2.59171 5.871,5.82507 9.093,9.75261 3.1863,3.88411 6.2917,8.03984 9.7797,12.70057 3.2964,4.40464 6.9595,9.29382 10.7928,13.90719 3.7847,4.55502 8.0601,9.24326 12.8803,13.42238 4.7547,4.12228 10.3006,7.98005 16.7646,10.73225 6.452,2.74706 13.6016,4.29685 21.42,4.07349 7.5156,-0.21566 14.4174,-1.96117 20.7144,-4.81717 6.1374,-2.78363 11.476,-6.51214 16.2006,-10.60748 4.6296,-4.01305 8.7793,-8.48023 12.5486,-12.92455 3.7074,-4.37133 7.2367,-8.95064 10.5272,-13.20628 3.3192,-4.29269 6.3996,-8.2616 9.522,-11.90416 3.0769,-3.58935 5.9852,-6.611 8.8614,-9.04008 2.8248,-2.38578 5.4557,-4.05991 7.9864,-5.13602 2.4346,-1.03522 5.0005,-1.61631 7.933,-1.59518 3.0817,0.0247 5.8857,0.61309 8.6066,1.69965 2.7483,1.09751 5.5865,2.78048 8.5796,5.11225 2.9985,2.33606 6.025,5.21606 9.2431,8.63728 3.2167,3.41977 6.3603,7.0907 9.8296,11.13483 3.3388,3.89195 6.9881,8.13964 10.8098,12.15108 3.8127,4.00187 8.0461,8.03782 12.7656,11.60073 4.7053,3.55226 10.0353,6.74355 16.0995,8.97543 6.0736,2.23531 12.6744,3.42962 19.8243,3.2099 6.9419,-0.21445 13.3238,-1.6569 19.1948,-4.01012 5.7932,-2.32202 10.9188,-5.46111 15.5007,-8.94633 4.5346,-3.44928 8.6232,-7.30489 12.3531,-11.15543 3.6873,-3.80671 7.2085,-7.80438 10.478,-11.50262 3.3236,-3.75943 6.4052,-7.23018 9.5382,-10.42425 3.0993,-3.15966 6.0686,-5.85947 9.0513,-8.05878 2.9446,-2.17128 5.8117,-3.79138 8.7521,-4.8787 2.8764,-1.06364 5.9921,-1.67724 9.537,-1.64997 3.6739,0.0303 6.992,0.64706 10.1148,1.72267 3.1385,1.08099 6.212,2.67175 9.3417,4.76753 3.1347,2.09912 6.2423,4.64756 9.4813,7.60447 3.2525,2.9692 6.4282,6.15345 9.8838,9.60958 3.359,3.35956 6.9795,6.9727 10.7676,10.37975 3.7965,3.41461 7.9437,6.79117 12.5139,9.73902 4.5755,2.95131 9.6316,5.51048 15.2702,7.2663 5.6465,1.75829 11.7139,2.65945 18.264,2.44908 6.4036,-0.20674 12.2913,-1.37409 17.7421,-3.26594 5.4168,-1.88006 10.2799,-4.43255 14.702,-7.31946 8.6334,-5.63613 16.037,-12.88591 22.4929,-19.12205 6.7212,-6.49249 12.5433,-12.01959 18.9588,-16.04554 3.1167,-1.95583 6.2817,-3.48998 9.6171,-4.53345 3.3151,-1.03713 6.9363,-1.63324 11.0187,-1.59676 4.1886,0.0389 7.9706,0.64206 11.4829,1.6634 3.5211,1.02387 6.8647,2.49545 10.1535,4.34416 6.7293,3.78274 12.7884,8.8578 19.7448,14.67605 6.6797,5.58683 14.1794,11.84981 22.8466,16.49444 4.3993,2.35759 9.1632,4.34038 14.3945,5.67573 5.2392,1.3374 10.8382,1.99731 16.8856,1.79742 5.9509,-0.19759 11.4118,-1.12806 16.4807,-2.61218 5.062,-1.4821 9.6585,-3.49432 13.8987,-5.80208 8.3583,-4.54909 15.5942,-10.41733 22.0798,-15.60264 6.6984,-5.35543 12.7208,-10.08986 19.4484,-13.56586 3.3178,-1.71422 6.77,-3.09761 10.4797,-4.0461 3.7099,-0.94854 7.7574,-1.48276 12.2753,-1.4364 4.6033,0.0482 8.7691,0.59795 12.6207,1.51225 3.8618,0.91672 7.4642,2.21344 10.9267,3.79023 7.0358,3.20405 13.3135,7.46389 20.1791,12.08794 6.7504,4.54651 13.9988,9.39282 22.3166,12.94721 4.2052,1.79694 8.6919,3.27054 13.5684,4.2442 4.8908,0.97651 10.1111,1.43761 15.765,1.24836 11.2624,-0.37831 20.521,-2.93562 28.6567,-6.47523 8.072,-3.51191 15.1221,-8.04208 21.6404,-12.16339 6.6963,-4.23381 12.9442,-8.1134 20.0005,-10.97371 3.5223,-1.42777 7.2309,-2.5925 11.2464,-3.38942 4.0328,-0.80035 8.409,-1.23638 13.2487,-1.1798 9.8114,0.11585 17.8542,1.85503 25.0516,4.36762 7.3305,2.55909 13.8374,5.93583 20.6026,9.3952 6.8064,3.48043 13.7906,6.99803 21.7652,9.54609 8.1103,2.59142 17.0871,4.1297 27.8305,3.77392 10.7829,-0.35782 19.616,-2.22314 27.397,-4.75151 7.8298,-2.54421 14.7241,-5.81193 21.2574,-8.84427 6.7362,-3.1265 13.1864,-6.05207 20.5241,-8.20536 7.4291,-2.18015 15.6984,-3.54041 25.7353,-3.4038 10.2558,0.14005 18.6371,1.44063 26.0454,3.2451 7.5622,1.84195 14.2792,4.25488 20.9188,6.5816 6.8632,2.40506 13.6102,4.70565 21.2999,6.34646 7.8788,1.68112 16.5313,2.61777 26.873,2.29501 10.572,-0.33017 19.1698,-1.57317 26.6821,-3.17078 7.6977,-1.63702 14.5554,-3.71973 21.0333,-5.62279 6.8635,-2.01635 13.4186,-3.86892 20.9005,-5.21157 7.7662,-1.39367 16.2621,-2.18128 26.3973,-2.00285 10.5688,0.18612 19.571,1.0009 27.4886,2.03127 8.2949,1.07948 15.8964,2.4683 22.7063,3.70019 7.5417,1.36427 14.2298,2.55761 21.3722,3.41275 7.6698,0.91828 15.2607,1.36253 23.4948,1.17118 -8.2329,0.19132 -15.8265,-0.27549 -23.4867,-1.23711 -7.127,-0.89468 -13.8174,-2.14555 -21.3362,-3.5838 -6.7871,-1.2983 -14.3958,-2.77846 -22.6833,-3.95633 -7.9184,-1.1254 -16.9372,-2.05108 -27.5366,-2.35688 -10.1846,-0.29378 -18.7526,0.37309 -26.617,1.64579 -7.5758,1.22599 -14.2201,2.96175 -21.1376,4.83776 -6.5443,1.7748 -13.3629,3.68433 -21.0048,5.14881 -7.4367,1.42516 -15.9178,2.48706 -26.3321,2.64465 -10.1332,0.15314 -18.5407,-0.93309 -26.1414,-2.73416 -7.4344,-1.76168 -13.9556,-4.16646 -20.7382,-6.74008 -6.5218,-2.47465 -13.3737,-5.14188 -21.1194,-7.22722 -7.6372,-2.05614 -16.3276,-3.6051 -26.9688,-3.95086 -10.5199,-0.34138 -19.3093,0.88492 -27.279,3.00593 -7.8222,2.08173 -14.6821,4.97623 -21.514,7.91838 -6.7081,2.88878 -13.3235,5.79307 -20.7808,8.00175 -7.3234,2.16903 -15.5587,3.69804 -25.6171,3.82499 -9.8657,0.12374 -17.9469,-1.48692 -25.1838,-4.01635 -7.2078,-2.51921 -13.5637,-5.93582 -20.273,-9.61486 -6.5298,-3.58059 -13.4941,-7.469 -21.4355,-10.48803 -7.9484,-3.02168 -16.9719,-5.22109 -27.9626,-5.58942 -5.4993,-0.1838 -10.5688,0.19085 -15.3165,1.00812 -4.7274,0.81379 -9.0913,2.0587 -13.2027,3.59348 -8.1421,3.03939 -15.2576,7.20841 -22.0376,11.22444 -6.8169,4.03789 -13.2099,7.86617 -20.3976,10.75701 -7.0422,2.83228 -14.8483,4.75672 -24.3578,4.86239 -4.6935,0.0514 -8.9184,-0.43774 -12.8001,-1.31922 -3.8729,-0.8795 -7.4591,-2.16207 -10.8806,-3.73959 -6.8934,-3.1783 -13.028,-7.49576 -19.7215,-12.28814 -6.5027,-4.6558 -13.6455,-9.84707 -21.859,-13.86966 -4.1472,-2.03108 -8.6183,-3.79464 -13.5224,-5.09639 -4.901,-1.30092 -10.1811,-2.12637 -15.9446,-2.31929 -5.8367,-0.19458 -11.234,0.36122 -16.2897,1.51082 -5.0454,1.14727 -9.6669,2.86675 -13.9695,4.93859 -8.4949,4.09058 -15.8728,9.63636 -22.5897,14.70673 -6.912,5.21765 -13.0774,9.89184 -19.9584,13.39221 -3.3754,1.71707 -6.8517,3.10868 -10.5503,4.08535 -3.6901,0.97447 -7.6753,1.55546 -12.0844,1.599 -4.3139,0.0414 -8.1595,-0.52883 -11.6795,-1.52945 -3.5292,-1.00322 -6.8396,-2.47028 -10.0546,-4.30985 -6.5663,-3.7571 -12.4832,-8.89278 -19.1915,-14.81524 -6.4693,-5.71144 -13.7933,-12.2677 -22.2933,-17.35597 -4.333,-2.59382 -9.0615,-4.86936 -14.2957,-6.54431 -5.2532,-1.68101 -10.9174,-2.7252 -17.0821,-2.92743 -6.2858,-0.20518 -12.109,0.56945 -17.5467,2.10978 -5.4303,1.53828 -10.3404,3.80131 -14.8319,6.45301 -8.8295,5.21272 -16.4405,12.20616 -23.0792,18.30141 -6.999,6.426 -12.9605,11.8926 -19.5454,15.94722 -3.2061,1.97409 -6.4061,3.50888 -9.7469,4.56976 -3.3219,1.05488 -6.8806,1.67013 -10.8233,1.70458 -3.8254,0.0317 -7.202,-0.57916 -10.301,-1.6371 -3.1329,-1.06953 -6.153,-2.65546 -9.179,-4.72114 -3.0565,-2.08651 -6.0722,-4.62957 -9.1911,-7.57594 -3.1489,-2.97464 -6.2412,-6.20303 -9.5654,-9.68937 -3.2664,-3.42563 -6.7777,-7.12294 -10.4493,-10.64018 -3.7085,-3.55253 -7.7548,-7.09325 -12.2236,-10.25212 -4.5059,-3.18505 -9.5028,-6.0264 -15.1076,-8.12276 -5.6582,-2.11629 -11.7864,-3.4165 -18.4502,-3.62745 -6.8393,-0.21535 -13.1675,0.82532 -19.0283,2.81586 -5.8515,1.98743 -11.0491,4.8568 -15.6969,8.10956 -4.6501,3.25435 -8.8452,6.96067 -12.6539,10.67137 -3.8076,3.70975 -7.4445,7.64004 -10.7947,11.26687 -3.4626,3.7487 -6.6218,7.17598 -9.855,10.3693 -3.2261,3.18624 -6.2897,5.89928 -9.352,8.11634 -3.0629,2.21748 -6.0067,3.85164 -8.9486,4.94482 -2.9204,1.08524 -5.9851,1.69279 -9.3701,1.71963 -3.2453,0.0235 -6.0885,-0.58022 -8.741,-1.63558 -2.7235,-1.08361 -5.4717,-2.73603 -8.3495,-5.01373 -2.9215,-2.31224 -5.8543,-5.17046 -8.9396,-8.54449 -3.124,-3.41627 -6.201,-7.1331 -9.5232,-11.16224 -3.2767,-3.97399 -6.8041,-8.26688 -10.5034,-12.35915 -3.7494,-4.14756 -7.8727,-8.31359 -12.4619,-12.04955 -4.6496,-3.78508 -9.8951,-7.22632 -15.8695,-9.77971 -6.0857,-2.60092 -12.7284,-4.19334 -19.9586,-4.40985 -7.4783,-0.22285 -14.3566,1.1405 -20.6322,3.62995 -6.2726,2.48823 -11.6981,5.99226 -16.4627,9.85403 -4.7765,3.87151 -9.0375,8.23511 -12.8438,12.52019 -3.8304,4.31226 -7.4882,8.87832 -10.811,13.03125 -3.4768,4.3456 -6.604,8.26032 -9.8058,11.90993 -3.216,3.66558 -6.2124,6.71783 -9.1565,9.17735 -2.9675,2.47902 -5.6832,4.18663 -8.2487,5.28547 -2.5332,1.08496 -5.0783,1.64671 -7.8507,1.67186 -2.6179,0.0214 -4.9128,-0.52472 -7.1451,-1.53131 -2.3604,-1.06434 -4.8951,-2.76005 -7.6846,-5.25871 -2.8527,-2.55534 -5.7515,-5.75015 -8.8246,-9.55288 -3.1323,-3.87594 -6.2284,-8.10789 -9.5403,-12.6505 -3.3176,-4.55029 -6.8423,-9.39908 -10.5533,-14.03769 -3.796,-4.74492 -7.9623,-9.49497 -12.6121,-13.76434 -4.7861,-4.3945 -10.2041,-8.39968 -16.4732,-11.40177 -6.5042,-3.11465 -13.6483,-5.00378 -21.4158,-5.21173 -8.1572,-0.2177 -15.574,1.54118 -22.1695,4.46464 -6.6773,2.95972 -12.4222,7.0687 -17.3191,11.37963 -5.042,4.43874 -9.5397,9.40939 -13.5027,14.21556 -4.0818,4.95023 -7.952,10.16777 -11.4019,14.87293 -3.7492,5.11335 -6.9172,9.50031 -10.2234,13.75321 -3.3736,4.33962 -6.3815,7.86576 -9.2372,10.69568 -2.986,2.959 -5.4331,4.77909 -7.4255,5.85967 -0.4711,0.2555 -0.9072,0.46433 -1.3103,0.63522 -0.3951,0.16748 0.5373,4.68782 0.2198,9.38558 -0.3174,4.69775 -2.0538,9.40888 -3.094,9.43305 z m 0,36.23359 c 1.0402,-0.0242 3.4108,4.37455 7.0577,8.18013 3.6876,3.84796 8.2993,6.92727 9.9087,6.245 1.531,-0.64902 3.0145,-1.36996 4.4515,-2.15084 5.8889,-3.20018 11.0505,-7.43632 15.6328,-12.00267 4.3906,-4.37518 8.4523,-9.25871 12.2865,-14.23213 3.6922,-4.78921 7.2651,-9.78331 10.7748,-14.62266 3.4058,-4.6961 6.7283,-9.21352 10.0799,-13.3336 3.2557,-4.00218 6.3873,-7.43989 9.4721,-10.20426 2.9933,-2.68228 5.6959,-4.50671 8.158,-5.63611 2.2943,-1.05247 4.4882,-1.55745 6.8189,-1.52963 2.4726,0.0315 4.7773,0.56548 7.1494,1.65702 2.4006,1.10461 5.029,2.85654 7.9759,5.49201 2.898,2.59171 5.871,5.82507 9.093,9.75261 3.1863,3.88411 6.2917,8.03984 9.7797,12.70057 3.2964,4.40464 6.9595,9.29382 10.7928,13.90719 3.7847,4.55502 8.0601,9.24326 12.8803,13.42238 4.7547,4.12228 10.3006,7.98005 16.7646,10.73225 6.452,2.74706 13.6016,4.29685 21.42,4.07349 7.5156,-0.21566 14.4174,-1.96117 20.7144,-4.81717 6.1374,-2.78363 11.476,-6.51214 16.2006,-10.60748 4.6296,-4.01305 8.7793,-8.48023 12.5486,-12.92455 3.7074,-4.37133 7.2367,-8.95064 10.5272,-13.20628 3.3192,-4.29269 6.3996,-8.2616 9.522,-11.90416 3.0769,-3.58935 5.9852,-6.611 8.8614,-9.04008 2.8248,-2.38578 5.4557,-4.05991 7.9864,-5.13602 2.4346,-1.03522 5.0005,-1.61631 7.933,-1.59518 3.0817,0.0247 5.8857,0.61309 8.6066,1.69965 2.7483,1.09751 5.5865,2.78048 8.5796,5.11225 2.9985,2.33606 6.025,5.21606 9.2431,8.63728 3.2167,3.41977 6.3603,7.0907 9.8296,11.13483 3.3388,3.89195 6.9881,8.13964 10.8098,12.15108 3.8127,4.00187 8.0461,8.03782 12.7656,11.60073 4.7053,3.55226 10.0353,6.74355 16.0995,8.97543 6.0736,2.23531 12.6744,3.42962 19.8243,3.2099 6.9419,-0.21445 13.3238,-1.6569 19.1948,-4.01012 5.7932,-2.32202 10.9188,-5.46111 15.5007,-8.94633 4.5346,-3.44928 8.6232,-7.30489 12.3531,-11.15543 3.6873,-3.80671 7.2085,-7.80438 10.478,-11.50262 3.3236,-3.75943 6.4052,-7.23018 9.5382,-10.42425 3.0993,-3.15966 6.0686,-5.85947 9.0513,-8.05878 2.9446,-2.17128 5.8117,-3.79138 8.7521,-4.8787 2.8764,-1.06364 5.9921,-1.67724 9.537,-1.64997 3.6739,0.0303 6.992,0.64706 10.1148,1.72267 3.1385,1.08099 6.212,2.67175 9.3417,4.76753 3.1347,2.09912 6.2423,4.64756 9.4813,7.60447 3.2525,2.9692 6.4282,6.15345 9.8838,9.60958 3.359,3.35956 6.9795,6.9727 10.7676,10.37975 3.7965,3.41461 7.9437,6.79117 12.5139,9.73902 4.5755,2.95131 9.6316,5.51048 15.2702,7.2663 5.6465,1.75829 11.7139,2.65945 18.264,2.44908 6.4036,-0.20674 12.2913,-1.37409 17.7421,-3.26594 5.4168,-1.88006 10.2799,-4.43255 14.702,-7.31946 8.6334,-5.63613 16.037,-12.88591 22.4929,-19.12205 6.7212,-6.49249 12.5433,-12.01959 18.9588,-16.04554 3.1167,-1.95583 6.2817,-3.48998 9.6171,-4.53345 3.3151,-1.03713 6.9363,-1.63324 11.0187,-1.59676 4.1886,0.0389 7.9706,0.64206 11.4829,1.6634 3.5211,1.02387 6.8647,2.49545 10.1535,4.34416 6.7293,3.78273 12.7884,8.8578 19.7448,14.67605 6.6797,5.58683 14.1794,11.84981 22.8466,16.49444 4.3993,2.35759 9.1632,4.34038 14.3945,5.67573 5.2392,1.3374 10.8382,1.99731 16.8856,1.79742 5.9509,-0.19759 11.4118,-1.12806 16.4807,-2.61218 5.062,-1.4821 9.6585,-3.49432 13.8987,-5.80208 8.3583,-4.5491 15.5942,-10.41733 22.0798,-15.60264 6.6984,-5.35543 12.7208,-10.08986 19.4484,-13.56586 3.3178,-1.71422 6.77,-3.09761 10.4797,-4.0461 3.7099,-0.94854 7.7574,-1.48276 12.2753,-1.4364 4.6033,0.0482 8.7691,0.59795 12.6207,1.51225 3.8618,0.91672 7.4642,2.21344 10.9267,3.79023 7.0358,3.20405 13.3135,7.46389 20.1791,12.08794 6.7504,4.54651 13.9988,9.39282 22.3166,12.94721 4.2052,1.79694 8.6919,3.27054 13.5684,4.2442 4.8908,0.97651 10.1111,1.43761 15.765,1.24836 11.2624,-0.37831 20.521,-2.93562 28.6567,-6.47523 8.072,-3.51191 15.1221,-8.04208 21.6404,-12.16339 6.6963,-4.23381 12.9442,-8.1134 20.0005,-10.97371 3.5223,-1.42777 7.2309,-2.5925 11.2464,-3.38942 4.0328,-0.80035 8.409,-1.23638 13.2487,-1.1798 9.8114,0.11585 17.8542,1.85503 25.0516,4.36762 7.3305,2.55909 13.8374,5.93583 20.6026,9.3952 6.8064,3.48043 13.7906,6.99803 21.7652,9.54609 8.1103,2.59142 17.0871,4.12969 27.8305,3.77392 10.7829,-0.35782 19.616,-2.22314 27.397,-4.75151 7.8298,-2.54421 14.7241,-5.81193 21.2574,-8.84427 6.7362,-3.1265 13.1864,-6.05207 20.5241,-8.20536 7.4291,-2.18015 15.6984,-3.54041 25.7353,-3.4038 10.2558,0.14005 18.6371,1.44063 26.0454,3.2451 7.5622,1.84195 14.2792,4.25488 20.9188,6.58159 6.8632,2.40507 13.6102,4.70566 21.2999,6.34646 7.8788,1.68113 16.5313,2.61778 26.873,2.29502 10.572,-0.33017 19.1698,-1.57317 26.6821,-3.17078 7.6977,-1.63702 14.5554,-3.71973 21.0333,-5.62279 6.8635,-2.01635 13.4186,-3.86892 20.9005,-5.21157 7.7662,-1.39367 16.2621,-2.18128 26.3973,-2.00285 10.5688,0.18612 19.571,1.0009 27.4886,2.03127 8.2949,1.07948 15.8964,2.46829 22.7063,3.70019 7.5417,1.36427 14.2298,2.55761 21.3722,3.41275 7.6698,0.91827 15.2607,1.36253 23.4948,1.17118 -8.2329,0.19132 -15.8265,-0.27549 -23.4867,-1.23711 -7.127,-0.89468 -13.8174,-2.14555 -21.3362,-3.5838 -6.7871,-1.2983 -14.3958,-2.77846 -22.6833,-3.95633 -7.9184,-1.1254 -16.9372,-2.05108 -27.5366,-2.35688 -10.1846,-0.29378 -18.7526,0.37309 -26.617,1.64579 -7.5758,1.22599 -14.2201,2.96175 -21.1376,4.83776 -6.5443,1.7748 -13.3629,3.68433 -21.0048,5.14881 -7.4367,1.42516 -15.9178,2.48706 -26.3321,2.64465 -10.1332,0.15314 -18.5407,-0.93309 -26.1414,-2.73416 -7.4344,-1.76168 -13.9556,-4.16646 -20.7382,-6.74008 -6.5218,-2.47465 -13.3737,-5.14188 -21.1194,-7.22722 -7.6372,-2.05614 -16.3276,-3.6051 -26.9688,-3.95086 -10.5199,-0.34138 -19.3093,0.88492 -27.279,3.00593 -7.8222,2.08173 -14.6821,4.97623 -21.514,7.91838 -6.7081,2.88878 -13.3235,5.79307 -20.7808,8.00175 -7.3234,2.16903 -15.5587,3.69804 -25.6171,3.82499 -9.8657,0.12374 -17.9469,-1.48692 -25.1838,-4.01635 -7.2078,-2.51921 -13.5637,-5.93582 -20.273,-9.61486 -6.5298,-3.58059 -13.4941,-7.469 -21.4355,-10.48803 -7.9484,-3.02168 -16.9719,-5.22109 -27.9626,-5.58942 -5.4993,-0.1838 -10.5688,0.19085 -15.3165,1.00812 -4.7274,0.81379 -9.0913,2.0587 -13.2027,3.59347 -8.1421,3.0394 -15.2576,7.20842 -22.0376,11.22444 -6.8169,4.0379 -13.2099,7.86618 -20.3976,10.75702 -7.0422,2.83228 -14.8483,4.75672 -24.3578,4.86239 -4.6935,0.0514 -8.9184,-0.43774 -12.8001,-1.31922 -3.8729,-0.8795 -7.4591,-2.16207 -10.8806,-3.73959 -6.8934,-3.1783 -13.028,-7.49576 -19.7215,-12.28814 -6.5027,-4.6558 -13.6455,-9.84707 -21.859,-13.86966 -4.1472,-2.03108 -8.6183,-3.79464 -13.5224,-5.09639 -4.901,-1.30092 -10.1811,-2.12637 -15.9446,-2.31929 -5.8367,-0.19458 -11.234,0.36122 -16.2897,1.51082 -5.0454,1.14727 -9.6669,2.86675 -13.9695,4.93859 -8.4949,4.09058 -15.8728,9.63636 -22.5897,14.70673 -6.912,5.21765 -13.0774,9.89184 -19.9584,13.39221 -3.3754,1.71706 -6.8517,3.10868 -10.5503,4.08535 -3.6901,0.97447 -7.6753,1.55546 -12.0844,1.599 -4.3139,0.0414 -8.1595,-0.52883 -11.6795,-1.52945 -3.5292,-1.00322 -6.8396,-2.47028 -10.0546,-4.30985 -6.5663,-3.7571 -12.4832,-8.89278 -19.1915,-14.81524 -6.4693,-5.71144 -13.7933,-12.2677 -22.2933,-17.35597 -4.333,-2.59382 -9.0615,-4.86936 -14.2957,-6.54431 -5.2532,-1.68101 -10.9174,-2.7252 -17.0821,-2.92743 -6.2858,-0.20518 -12.109,0.56945 -17.5467,2.10978 -5.4303,1.53828 -10.3404,3.80131 -14.8319,6.45301 -8.8295,5.21272 -16.4405,12.20616 -23.0792,18.30141 -6.999,6.426 -12.9605,11.8926 -19.5454,15.94722 -3.2061,1.97409 -6.4061,3.50888 -9.7469,4.56976 -3.3219,1.05488 -6.8806,1.67013 -10.8233,1.70458 -3.8254,0.0317 -7.202,-0.57916 -10.301,-1.6371 -3.1329,-1.06953 -6.153,-2.65546 -9.179,-4.72114 -3.0565,-2.08651 -6.0722,-4.62957 -9.1911,-7.57594 -3.1489,-2.97464 -6.2412,-6.20303 -9.5654,-9.68937 -3.2664,-3.42563 -6.7777,-7.12294 -10.4493,-10.64018 -3.7085,-3.55253 -7.7548,-7.09325 -12.2236,-10.25212 -4.5059,-3.18505 -9.5028,-6.0264 -15.1076,-8.12276 -5.6582,-2.11629 -11.7864,-3.4165 -18.4502,-3.62745 -6.8393,-0.21535 -13.1675,0.82532 -19.0283,2.81586 -5.8515,1.98743 -11.0491,4.8568 -15.6969,8.10956 -4.6501,3.25435 -8.8452,6.96067 -12.6539,10.67137 -3.8076,3.70975 -7.4445,7.64003 -10.7947,11.26687 -3.4626,3.7487 -6.6218,7.17598 -9.855,10.3693 -3.2261,3.18624 -6.2897,5.89928 -9.352,8.11634 -3.0629,2.21748 -6.0067,3.85164 -8.9486,4.94482 -2.9204,1.08524 -5.9851,1.69279 -9.3701,1.71963 -3.2453,0.0235 -6.0885,-0.58022 -8.741,-1.63558 -2.7235,-1.08361 -5.4717,-2.73603 -8.3495,-5.01373 -2.9215,-2.31224 -5.8543,-5.17046 -8.9396,-8.54449 -3.124,-3.41627 -6.201,-7.1331 -9.5232,-11.16224 -3.2767,-3.97399 -6.8041,-8.26688 -10.5034,-12.35915 -3.7494,-4.14756 -7.8727,-8.31359 -12.4619,-12.04955 -4.6496,-3.78508 -9.8951,-7.22632 -15.8695,-9.77971 -6.0857,-2.60092 -12.7284,-4.19334 -19.9586,-4.40985 -7.4783,-0.22285 -14.3566,1.1405 -20.6322,3.62995 -6.2726,2.48823 -11.6981,5.99226 -16.4627,9.85403 -4.7765,3.87151 -9.0375,8.23511 -12.8438,12.52019 -3.8304,4.31226 -7.4882,8.87832 -10.811,13.03125 -3.4768,4.3456 -6.604,8.26032 -9.8058,11.90993 -3.216,3.66558 -6.2124,6.71783 -9.1565,9.17735 -2.9675,2.47902 -5.6832,4.18663 -8.2487,5.28547 -2.5332,1.08496 -5.0783,1.6467 -7.8507,1.67186 -2.6179,0.0214 -4.9128,-0.52472 -7.1451,-1.53131 -2.3604,-1.06434 -4.8951,-2.76005 -7.6846,-5.25871 -2.8527,-2.55534 -5.7515,-5.75015 -8.8246,-9.55288 -3.1323,-3.87594 -6.2284,-8.10789 -9.5403,-12.6505 -3.3176,-4.55029 -6.8423,-9.39908 -10.5533,-14.03769 -3.796,-4.74492 -7.9623,-9.49497 -12.6121,-13.76434 -4.7861,-4.3945 -10.2041,-8.39968 -16.4732,-11.40177 -6.5042,-3.11465 -13.6483,-5.00378 -21.4158,-5.21173 -8.1572,-0.2177 -15.574,1.54118 -22.1695,4.46464 -6.6773,2.95972 -12.4222,7.0687 -17.3191,11.37963 -5.042,4.43874 -9.5397,9.40939 -13.5027,14.21556 -4.0818,4.95023 -7.952,10.16777 -11.4019,14.87293 -3.7492,5.11335 -6.9172,9.50031 -10.2234,13.75321 -3.3736,4.33962 -6.3815,7.86576 -9.2372,10.69568 -2.986,2.959 -5.4331,4.77909 -7.4255,5.85967 -0.4711,0.2555 -0.9072,0.46433 -1.3103,0.63522 -0.3951,0.16748 0.5373,4.68782 0.2198,9.38558 -0.3174,4.69775 -2.0538,9.40888 -3.094,9.43305 z"
         id="use17"
         inkscape:linked-fill="path21"
         transform="matrix(0.3255034,0,0,0.29083797,-587.61599,216.8409)"
         sodipodi:nodetypes="czzzzzzzzzzzzzzzc"
         clip-path="url(#clipPath55)" />
    </pattern>
    <clipPath
       clipPathUnits="userSpaceOnUse"
       id="clipPath32">
      <rect
         style="fill:#ff0000;stroke:none;stroke-width:3;stroke-linecap:square;stroke-linejoin:miter;paint-order:stroke markers fill;stop-color:#000000"
         id="rect32"
         width="78"
         height="45.033199"
         x="763.61322"
         y="452.82422" />
    </clipPath>
    <clipPath
       clipPathUnits="userSpaceOnUse"
       id="clipPath54">
      <path
         id="path54"
         style="stroke-width:0.0999999;stroke-linecap:square;paint-order:markers fill stroke;stop-color:#000000"
         d="m 1691.1994,-792.32001 h 1634.8919 v 92.82806 H 1691.1994 Z" />
    </clipPath>
    <clipPath
       clipPathUnits="userSpaceOnUse"
       id="clipPath27">
      <rect
         style="fill:none;stroke:#000000;stroke-width:0.999999;stroke-linecap:butt;stroke-linejoin:bevel;paint-order:stroke markers fill;stop-color:#000000"
         id="rect28-6"
         width="46.160622"
         height="39.922417"
         x="86.574379"
         y="420.06253" />
    </clipPath>
    <clipPath
       clipPathUnits="userSpaceOnUse"
       id="clipPath25">
      <rect
         style="fill:#ff0000;stroke:none;stroke-width:3;stroke-linecap:square;stroke-linejoin:miter;paint-order:stroke markers fill;stop-color:#000000"
         id="rect25-8"
         width="78"
         height="45.033199"
         x="763.61322"
         y="452.82422" />
    </clipPath>
    <clipPath
       clipPathUnits="userSpaceOnUse"
       id="clipPath33">
      <rect
         style="fill:#000000;stroke:none;stroke-width:0.999995;stroke-linecap:butt;stroke-linejoin:bevel;paint-order:stroke markers fill;stop-color:#000000"
         id="rect33"
         width="46.19186"
         height="80.006783"
         x="74.999985"
         y="399.99661" />
    </clipPath>
  </defs>
  <g
     inkscape:label="Layer 1"
     inkscape:groupmode="layer"
     id="layer1">
    <path
       style="font-variation-settings:normal;opacity:1;vector-effect:none;fill:url(#pattern48);fill-opacity:1;stroke:none;stroke-width:0.352777;stroke-linecap:round;stroke-linejoin:miter;stroke-miterlimit:4;stroke-dasharray:none;stroke-dashoffset:0;stroke-opacity:0.854902;-inkscape-stroke:none;stop-color:#000000;stop-opacity:1;fill-rule:nonzero"
       d="M 0,297 V 176.07857 L 210,103.95 V 297 Z"
       id="path1"
       sodipodi:nodetypes="ccccc" />
    <path
       style="font-variation-settings:normal;display:inline;opacity:1;vector-effect:none;fill:#000000;fill-opacity:1;stroke:#000000;stroke-width:0.352777;stroke-linecap:round;stroke-linejoin:miter;stroke-miterlimit:4;stroke-dasharray:none;stroke-dashoffset:0;stroke-opacity:0.854902;-inkscape-stroke:none;stop-color:#000000;stop-opacity:1"
       d="M 0,176.07857 47.546287,159.74788 210,283.91786 210,297 H 0 Z"
       id="path29"
       sodipodi:nodetypes="cccccc" />
    <path
       style="font-variation-settings:normal;opacity:1;vector-effect:none;fill:url(#pattern49);fill-opacity:1;fill-rule:nonzero;stroke:none;stroke-width:0.352777;stroke-linecap:round;stroke-linejoin:miter;stroke-miterlimit:4;stroke-dasharray:none;stroke-dashoffset:0;stroke-opacity:0.854902;-inkscape-stroke:none;stop-color:#000000;stop-opacity:1"
       d="M 0.35357143,297.35357 V 176.43214 L 210.35357,104.30357 v 193.05 z"
       id="path48"
       sodipodi:nodetypes="ccccc" />
  </g>
</svg>
